<svg width="388" height="100" viewBox="0 0 388 100" fill="none" xmlns="http://www.w3.org/2000/svg">
<path d="M219.839 29.6788L190.092 99.6244H176.365L147.215 29.6788H167.512L183.278 69.5338L199.492 29.6788H219.839Z" fill="#122231"/>
<path d="M252.656 99.643C232.035 99.643 219.716 85.3155 219.716 62.9539C219.716 40.8602 231.633 26.5327 252.12 26.5327C273.946 26.5327 283.989 42.6009 283.989 61.7488V67.3727H237.525V69.1134C237.525 79.156 243.283 85.985 254.53 85.985C262.966 85.985 268.055 81.968 272.34 76.478L281.579 86.7884C275.821 94.6886 265.644 99.643 252.656 99.643ZM252.388 39.3873C243.417 39.3873 237.525 46.0824 237.525 55.7233V56.7945H266.18V55.5894C266.18 45.9485 261.226 39.3873 252.388 39.3873Z" fill="#122231"/>
<rect x="292.692" y="0.484253" width="17.4073" height="99.1581" fill="#122231"/>
<path fill-rule="evenodd" clip-rule="evenodd" d="M328.847 20.5695C334.393 20.5695 338.89 16.0733 338.89 10.5269C338.89 4.98049 334.393 0.484253 328.847 0.484253C323.3 0.484253 318.804 4.98049 318.804 10.5269C318.804 16.0733 323.3 20.5695 328.847 20.5695ZM337.55 29.6789H320.143V99.6424H337.55V29.6789Z" fill="#122231"/>
<path d="M364.732 99.6422H347.592V29.7456H364.732V44.207H365.401C367.142 36.8424 372.766 29.7456 383.88 29.7456H387.629V45.9477H382.273C370.757 45.9477 364.732 49.1613 364.732 56.7937V99.6422Z" fill="#122231"/>
<g clip-path="url(#clip0_223_1275)">
<path d="M0 0.227905H44.7358L94.3076 99.9846H49.5718L0 0.227905Z" fill="#122231"/>
<path d="M90.4404 -0.0144043L113.196 46.3688H67.6848L90.4404 -0.0144043Z" fill="#122231"/>
<path d="M113.191 46.3479L90.4359 -0.035336L135.947 -0.035332L113.191 46.3479Z" fill="#122231"/>
</g>
<defs>
<clipPath id="clip0_223_1275">
<rect width="139.467" height="100" fill="white"/>
</clipPath>
</defs>
</svg>
